# xmcd
#
# Track frame offsets:
#	150
#	11268
#	24393
#	39918
#	56193
#	71418
#	85143
#	98718
#	111693
#	124143
#	137568
#	150093
#	164118
#	177243
#	188418
#	201468
#
# Disc length: 2852
#
# Revision: 1
# Processed by: cddbd v1.5.1PL0 Copyright (c) Steve Scherf et al.
# Submitted via: CDnGo 1.95
# Normalized: r0:DSETVAR1
#
DISCID=d00b2210
DTITLE=Various Artist - Blues Sunset CD2
DYEAR=2003
DGENRE=Blues
TTITLE0=Sister Rosetta Tharpe - Trouble In Mind
TTITLE1=T-Bone Walker - Mean Old World
TTITLE2=Muddy Waters - Country Blues
TTITLE3=B.B. King - The Other Night Blues
TTITLE4=Louis Jordan - Early In The Mornin'
TTITLE5=Billie Holiday - The Blues Are Brewin'
TTITLE6=Julia Lee - Show Me Missouri Blues
TTITLE7=Robert Johnson - Preachin Blues
TTITLE8=Ray Charles - Rockin' Chair Blues
TTITLE9=Tony Hollins - Crawlin' King Snake
TTITLE10=Ella Fitzgerald - Cry You Out Of My Heart
TTITLE11=John Lee Hooker - Sally Mae
TTITLE12=Sleepy John Estes - Mailman Blues
TTITLE13=Sarah Vaughan - Tenderly
TTITLE14=Big Bill Broonzy - Doing The Best I Can
TTITLE15=Helen Humes - Jet Propelled Papa
EXTD=
EXTT0=
EXTT1=
EXTT2=
EXTT3=
EXTT4=
EXTT5=
EXTT6=
EXTT7=
EXTT8=
EXTT9=
EXTT10=
EXTT11=
EXTT12=
EXTT13=
EXTT14=
EXTT15=
PLAYORDER=
